# xmcd
#
# Track frame offsets:
# 150
# 13256
# 23544
# 36971
# 53076
# 63664
# 77645
# 90137
# 100858
# 112051
# 123272
# 135277
#
# Disc length: 1941 seconds
#
#
# Revision: 0
# Processed by: cddbd v1.5.2PL0 Copyright (c) Steve Scherf et al.
# Submitted via: FreeRIP 2.945 
#
DISCID=8d07930c
DTITLE=Bill Anderson - I Can Do Nothing Alone
DYEAR=1900
DGENRE=Country
TTITLE0=I Can Do Nothing Alone
TTITLE1=Standing On The Promises
TTITLE2=Angel Band
TTITLE3=Papa
TTITLE4=Less Of Me
TTITLE5=Where He Leads Me
TTITLE6=Just As I Am
TTITLE7=Light At The River
TTITLE8=Most Richly Blessed
TTITLE9=Take Up Thy Cross
TTITLE10=I Dreamed About Mama Last Night
TTITLE11=Blessed Assurance
EXTD=
EXTT0=
EXTT1=
EXTT2=
EXTT3=
EXTT4=
EXTT5=
EXTT6=
EXTT7=
EXTT8=
EXTT9=
EXTT10=
EXTT11=
PLAYORDER=
